<svg viewBox="0 0 48 48" xmlns="http://www.w3.org/2000/svg">
  <defs>
    <!-- Brand-aligned color palette -->
    <linearGradient id="association" x1="0%" y1="0%" x2="100%" y2="100%">
      <stop offset="0%" style="stop-color:#0EA5E9;stop-opacity:1" />
      <stop offset="100%" style="stop-color:#0284C7;stop-opacity:1" />
    </linearGradient>
  </defs>
  
  <!-- Modern container -->
  <rect x="2" y="2" width="44" height="44" rx="12" fill="#FFFFFF" stroke="#E5E7EB" stroke-width="1"/>
  
  <!-- Upload cloud -->
  <g transform="translate(24, 14)">
    <!-- Cloud shape -->
    <path d="M-6 4 C-6 2 -4 0 -2 0 C-1 -2 1 -2 2 0 C4 0 6 2 6 4 C6 6 4 8 2 8 L-4 8 C-5 8 -6 6 -6 4 Z" 
          fill="url(#association)" opacity="0.1" stroke="url(#association)" stroke-width="1"/>
    
    <!-- Upload arrow -->
    <path d="M0 2 L0 10 M-2 4 L0 2 L2 4" stroke="url(#association)" stroke-width="1.5" fill="none" stroke-linecap="round" stroke-linejoin="round"/>
  </g>
  
  <!-- Document stack indicator -->
  <g transform="translate(24, 26)">
    <rect x="-5" y="0" width="7" height="9" rx="1" fill="#FFFFFF" stroke="url(#association)" stroke-width="0.5"/>
    <rect x="-4" y="-1" width="7" height="9" rx="1" fill="#FFFFFF" stroke="url(#association)" stroke-width="0.5"/>
    <rect x="-3" y="-2" width="7" height="9" rx="1" fill="url(#association)" opacity="0.8"/>
    
    <!-- Document lines -->
    <line x1="-2" y1="1" x2="2" y2="1" stroke="#FFFFFF" stroke-width="0.5"/>
    <line x1="-2" y1="3" x2="2" y2="3" stroke="#FFFFFF" stroke-width="0.5"/>
    <line x1="-2" y1="5" x2="1.5" y2="5" stroke="#FFFFFF" stroke-width="0.5"/>
  </g>
</svg> 